# xmcd
#
# Track frame offsets:
#	150
#	20127
#	43510
#	60036
#	81803
#	100400
#	120768
#	139152
#	153214
#	173404
#	188775
#	213473
#	235531
#	255677
#	273110
#	295416
#	314778
#
# Disc length: 4468 seconds
#
# Revision: 0
# Processed by: cddbd v1.5.2PL0 Copyright (c) Steve Scherf et al.
# Submitted via: EasyCDDAExtractor 15.3.0.1
#
DISCID=e0117211
DTITLE=Рождество - Под какой звездой
DYEAR=2012
DGENRE=Pop
TTITLE0=Под какой звездой
TTITLE1=Погадай мне, мама
TTITLE2=Цветы для Маши
TTITLE3=Моя весна
TTITLE4=Кама Сутра
TTITLE5=Два товарища
TTITLE6=Бродить вдоль берегов
TTITLE7=Груши мои груши
TTITLE8=Почему
TTITLE9=Олимпийцы в Сочи
TTITLE10=Ромашка
TTITLE11=Чики Чики Бум
TTITLE12=Встреча и разлука
TTITLE13=Гони туда
TTITLE14=Молодость
TTITLE15=На канале в Тушино
TTITLE16=Новый Год, Новый Год (remix)
EXTD=
EXTT0=
EXTT1=
EXTT2=
EXTT3=
EXTT4=
EXTT5=
EXTT6=
EXTT7=
EXTT8=
EXTT9=
EXTT10=
EXTT11=
EXTT12=
EXTT13=
EXTT14=
EXTT15=
EXTT16=
PLAYORDER=
